<svg version="1.1" id="Layer_1" xmlns="http://www.w3.org/2000/svg" xmlns:xlink="http://www.w3.org/1999/xlink" x="0px" y="0px"
	 width="32px" height="32px" viewBox="0 0 720 688" enable-background="new 0 0 720 688" xml:space="preserve">
<path fill="#0066ff" opacity="1.000000" stroke="none" 
	d="
M172.778046,134.869263 
	C178.600204,122.839973 184.259949,111.149261 189.925201,99.461220 
	C191.229401,96.770508 192.995850,94.588196 196.316086,94.692146 
	C212.954620,95.213074 229.636505,93.551842 246.242691,95.716057 
	C257.886780,97.233566 267.357941,102.492653 274.462677,111.908569 
	C277.170685,115.497520 279.903625,119.067780 282.639618,122.635498 
	C285.607819,126.506081 286.705414,126.480606 289.608826,122.287209 
	C291.409821,119.686058 292.975891,116.922005 294.781860,114.324570 
	C297.331207,110.658051 300.613068,109.245819 305.159119,110.652534 
	C313.523010,113.240639 320.944183,117.784058 328.596588,121.780106 
	C384.562531,151.005325 440.590363,180.149658 494.747345,212.655975 
	C535.904602,237.359543 573.970032,266.223938 607.356750,300.880127 
	C618.839478,312.799500 628.980103,325.839447 633.800781,342.156891 
	C636.843445,352.455902 637.998230,363.078888 638.157959,373.708771 
	C638.508606,397.036926 637.982117,420.379822 638.441833,443.704315 
	C638.866699,465.258850 631.879517,483.592834 617.978760,500.013306 
	C598.026123,523.582703 574.158569,542.166565 548.043762,558.268860 
	C510.105560,581.661255 468.301147,592.598633 424.609528,598.583252 
	C395.554169,602.563049 366.473297,602.822571 337.345642,602.058899 
	C318.373901,601.561401 299.635956,598.132996 280.979523,594.597229 
	C277.765900,593.988159 275.596558,592.214417 273.594757,589.901001 
	C249.937561,562.561035 226.204086,535.284119 204.159180,506.601654 
	C200.811340,502.245789 197.674896,497.727966 194.404404,493.311920 
	C192.446030,490.667511 191.569595,487.761566 191.587952,484.450623 
	C191.650787,473.117767 191.686768,461.783081 191.545410,450.451477 
	C191.471771,444.549896 193.882767,439.395538 196.037643,434.202026 
	C201.206497,421.744476 206.621506,409.388794 211.969360,397.005920 
	C214.508621,391.126221 216.961121,389.866272 224.476120,391.139343 
	C240.230057,393.808167 256.042572,396.184357 271.554779,400.138336 
	C274.252594,400.825958 277.031921,401.193878 280.981262,401.936584 
	C275.855438,385.232635 268.567993,370.522278 262.091248,355.372345 
	C261.030487,359.882050 259.997223,364.149597 258.305420,368.290894 
	C254.413300,377.818390 246.595108,381.542847 237.207367,382.808136 
	C232.524048,383.439423 230.862000,379.968018 229.984253,376.130432 
	C227.490036,365.225677 224.182922,354.586792 219.771927,344.298798 
	C219.327469,343.262177 219.175262,342.047424 217.641617,341.361450 
	C216.776276,343.447266 216.870560,345.635773 217.147888,347.648651 
	C217.923706,353.279480 215.109177,356.369049 210.317841,358.401642 
	C206.154892,360.167633 201.865402,361.487335 197.420319,362.226593 
	C192.652512,363.019531 188.671951,361.644623 185.273666,357.999908 
	C172.740936,344.558380 161.833130,329.826996 151.203918,314.907776 
	C135.917984,293.452301 120.330009,272.260376 102.423355,252.876556 
	C101.520218,251.898926 100.743492,250.805389 99.855598,249.812607 
	C92.889214,242.023346 89.349503,233.303482 90.443733,222.491272 
	C91.278572,214.242096 90.552048,205.840729 90.644173,197.508438 
	C90.701439,192.328293 92.485893,190.391296 97.679443,190.797180 
	C111.629013,191.887344 125.567177,193.269989 138.881897,198.009369 
	C144.633911,200.056793 149.443558,203.596497 153.738113,207.903320 
	C155.095795,209.264862 156.038757,211.201340 158.295898,211.656662 
	C160.143005,209.117371 159.592072,206.223236 159.660172,203.469849 
	C159.972610,190.837921 158.896652,178.173462 161.502518,165.610794 
	C163.726273,154.890350 167.996979,145.006714 172.778046,134.869263 
z"/>
</svg>