<svg version="1.1" id="Layer_1" xmlns="http://www.w3.org/2000/svg" xmlns:xlink="http://www.w3.org/1999/xlink" x="0px" y="0px"
	 width="100%" viewBox="0 0 720 688" enable-background="new 0 0 720 688" xml:space="preserve">
<path fill="#000000" opacity="1.000000" stroke="none" 
	d="
M8.505266,1.000000 
	C9.116805,2.988324 9.335782,4.976642 9.335919,6.964974 
	C9.351546,232.341370 9.351133,457.717773 9.346415,683.094177 
	C9.346380,684.758667 9.275234,686.423096 9.118646,688.543823 
	C6.335189,689.000000 3.670378,689.000000 1.006623,689.000000 
	C1.007679,459.666656 1.007679,230.333328 1.011518,1.000000 
	C3.347083,1.000000 5.678808,1.000000 8.505266,1.000000 
z"/>
<path fill="#000000" opacity="1.000000" stroke="none" 
	d="
M172.778046,134.869263 
	C178.600204,122.839973 184.259949,111.149261 189.925201,99.461220 
	C191.229401,96.770508 192.995850,94.588196 196.316086,94.692146 
	C212.954620,95.213074 229.636505,93.551842 246.242691,95.716057 
	C257.886780,97.233566 267.357941,102.492653 274.462677,111.908569 
	C277.170685,115.497520 279.903625,119.067780 282.639618,122.635498 
	C285.607819,126.506081 286.705414,126.480606 289.608826,122.287209 
	C291.409821,119.686058 292.975891,116.922005 294.781860,114.324570 
	C297.331207,110.658051 300.613068,109.245819 305.159119,110.652534 
	C313.523010,113.240639 320.944183,117.784058 328.596588,121.780106 
	C384.562531,151.005325 440.590363,180.149658 494.747345,212.655975 
	C535.904602,237.359543 573.970032,266.223938 607.356750,300.880127 
	C618.839478,312.799500 628.980103,325.839447 633.800781,342.156891 
	C636.843445,352.455902 637.998230,363.078888 638.157959,373.708771 
	C638.508606,397.036926 637.982117,420.379822 638.441833,443.704315 
	C638.866699,465.258850 631.879517,483.592834 617.978760,500.013306 
	C598.026123,523.582703 574.158569,542.166565 548.043762,558.268860 
	C510.105560,581.661255 468.301147,592.598633 424.609528,598.583252 
	C395.554169,602.563049 366.473297,602.822571 337.345642,602.058899 
	C318.373901,601.561401 299.635956,598.132996 280.979523,594.597229 
	C277.765900,593.988159 275.596558,592.214417 273.594757,589.901001 
	C249.937561,562.561035 226.204086,535.284119 204.159180,506.601654 
	C200.811340,502.245789 197.674896,497.727966 194.404404,493.311920 
	C192.446030,490.667511 191.569595,487.761566 191.587952,484.450623 
	C191.650787,473.117767 191.686768,461.783081 191.545410,450.451477 
	C191.471771,444.549896 193.882767,439.395538 196.037643,434.202026 
	C201.206497,421.744476 206.621506,409.388794 211.969360,397.005920 
	C214.508621,391.126221 216.961121,389.866272 224.476120,391.139343 
	C240.230057,393.808167 256.042572,396.184357 271.554779,400.138336 
	C274.252594,400.825958 277.031921,401.193878 280.981262,401.936584 
	C275.855438,385.232635 268.567993,370.522278 262.091248,355.372345 
	C261.030487,359.882050 259.997223,364.149597 258.305420,368.290894 
	C254.413300,377.818390 246.595108,381.542847 237.207367,382.808136 
	C232.524048,383.439423 230.862000,379.968018 229.984253,376.130432 
	C227.490036,365.225677 224.182922,354.586792 219.771927,344.298798 
	C219.327469,343.262177 219.175262,342.047424 217.641617,341.361450 
	C216.776276,343.447266 216.870560,345.635773 217.147888,347.648651 
	C217.923706,353.279480 215.109177,356.369049 210.317841,358.401642 
	C206.154892,360.167633 201.865402,361.487335 197.420319,362.226593 
	C192.652512,363.019531 188.671951,361.644623 185.273666,357.999908 
	C172.740936,344.558380 161.833130,329.826996 151.203918,314.907776 
	C135.917984,293.452301 120.330009,272.260376 102.423355,252.876556 
	C101.520218,251.898926 100.743492,250.805389 99.855598,249.812607 
	C92.889214,242.023346 89.349503,233.303482 90.443733,222.491272 
	C91.278572,214.242096 90.552048,205.840729 90.644173,197.508438 
	C90.701439,192.328293 92.485893,190.391296 97.679443,190.797180 
	C111.629013,191.887344 125.567177,193.269989 138.881897,198.009369 
	C144.633911,200.056793 149.443558,203.596497 153.738113,207.903320 
	C155.095795,209.264862 156.038757,211.201340 158.295898,211.656662 
	C160.143005,209.117371 159.592072,206.223236 159.660172,203.469849 
	C159.972610,190.837921 158.896652,178.173462 161.502518,165.610794 
	C163.726273,154.890350 167.996979,145.006714 172.778046,134.869263 
M304.520752,554.889893 
	C316.394135,556.768005 328.395660,557.283325 340.364624,557.628784 
	C376.605316,558.674622 412.545105,556.000488 448.168701,548.830139 
	C487.257477,540.962402 523.373596,526.409424 555.933777,503.208527 
	C576.661926,488.438629 595.899841,472.112457 611.473572,451.799744 
	C619.105347,441.845703 624.603210,431.228943 625.221863,418.185791 
	C626.044739,400.839264 625.708008,383.584778 624.564636,366.269623 
	C623.228699,346.036407 614.674866,329.651489 600.174011,315.869171 
	C586.310425,302.692596 571.971985,290.056091 557.384888,277.706573 
	C522.116089,247.847733 482.945374,223.863358 442.448578,201.919189 
	C412.724060,185.812225 382.983429,169.734360 353.184601,153.765472 
	C338.651123,145.977142 323.970215,138.463913 309.351349,130.835114 
	C307.110260,129.665604 305.080444,128.540573 302.605743,130.898605 
	C292.974030,140.076355 292.912140,140.011444 298.121490,152.529358 
	C298.249542,152.837082 298.386841,153.141220 298.506622,153.452103 
	C299.049316,154.860306 299.846008,156.413300 297.929230,157.332779 
	C296.151764,158.185425 295.171997,156.764374 294.260773,155.577896 
	C293.655121,154.789337 293.149658,153.913971 292.673920,153.037018 
	C286.336395,141.355301 277.453430,131.616760 268.685822,121.813705 
	C263.694611,116.233047 257.618317,112.496651 250.074814,110.893654 
	C235.516983,107.800110 220.848999,109.460632 206.223740,109.224968 
	C204.509872,109.197350 203.426697,110.031296 202.827240,111.621605 
	C196.998581,127.084435 188.245819,141.198898 182.082703,156.502533 
	C175.890396,171.878632 173.462601,187.255478 182.198730,202.676636 
	C189.341324,215.284882 196.036011,228.149780 203.306610,240.681992 
	C219.286438,268.226166 230.854034,297.580719 239.774994,328.048859 
	C241.635986,334.404785 244.278000,335.265350 249.326416,330.896484 
	C251.478470,329.034119 252.191544,326.539642 252.737137,323.866455 
	C254.388885,315.773651 253.314484,307.572815 253.875305,299.443451 
	C254.044968,296.984009 254.147766,294.062805 257.050659,293.209381 
	C260.052124,292.326965 261.389862,294.998962 262.903381,296.933746 
	C263.412476,297.584564 263.767395,298.356140 264.191498,299.073273 
	C276.366058,319.659424 284.997528,341.879181 293.975555,363.929169 
	C298.822968,375.834412 302.191010,388.204681 304.426178,400.863739 
	C305.194336,405.214447 307.001221,407.627899 311.905945,408.490021 
	C330.648102,411.784393 349.388733,411.571350 368.142212,409.287567 
	C378.062469,408.079468 378.872528,406.359009 375.950806,396.561981 
	C375.665497,395.605377 375.402649,394.635651 375.223541,393.654846 
	C372.302979,377.661194 369.961304,361.536591 366.360687,345.698059 
	C360.526978,320.036804 353.325073,294.719055 343.845215,270.124207 
	C339.355042,258.474731 334.499573,246.966110 329.820953,235.389099 
	C328.568481,232.289902 329.034515,229.487915 331.506439,227.171463 
	C333.949554,224.882034 336.717224,224.578110 339.836823,225.784241 
	C344.817993,227.710144 349.617157,229.940903 354.258118,232.620972 
	C375.246613,244.741364 394.577942,259.202820 413.333618,274.444946 
	C431.473297,289.186462 448.731903,304.867279 462.376984,324.065674 
	C469.445374,334.010773 474.966431,344.581421 473.688873,357.347504 
	C471.755615,376.666107 462.693268,391.612274 446.055664,401.850433 
	C444.680511,402.696655 442.815704,403.195801 442.176544,405.106354 
	C444.010223,405.824463 445.503693,403.781372 447.293549,405.316803 
	C441.680298,409.332397 434.918671,409.423492 428.998718,411.957397 
	C419.500092,416.023102 408.890350,417.252533 398.471619,418.495972 
	C392.824951,419.169891 386.207764,419.511353 385.512360,427.682739 
	C385.490936,427.934265 384.746002,428.124207 383.338806,428.879120 
	C383.417175,422.435608 379.945831,420.803070 374.358459,421.152161 
	C368.227783,421.535248 362.096619,422.155487 355.894836,421.758911 
	C341.115387,420.813843 326.237396,421.305908 311.584076,418.570648 
	C309.194336,418.124573 308.124573,419.264343 308.269043,421.608521 
	C308.371399,423.268646 308.520905,424.927429 308.703949,426.580780 
	C311.006989,447.383209 310.667175,468.156281 307.918823,488.889648 
	C307.133240,494.815948 307.463745,495.244202 313.494080,494.288605 
	C333.845245,491.063629 353.160248,485.392700 368.841156,471.020752 
	C369.979889,469.977051 371.552643,468.434326 373.178375,470.060547 
	C374.718048,471.600769 373.413788,473.156586 372.403564,474.477631 
	C368.082397,480.128143 362.563049,484.395691 356.489349,487.968292 
	C340.502289,497.372040 322.956757,501.561401 304.687378,503.162811 
	C298.738556,503.684235 297.096313,501.660522 298.069458,495.214722 
	C301.741577,470.891602 299.629669,446.761292 296.264862,422.592743 
	C295.534088,417.343781 293.374176,415.574890 288.614075,414.868958 
	C268.529388,411.890259 248.475449,408.703217 228.417770,405.544800 
	C225.714203,405.119049 224.075974,406.336151 222.549850,408.376648 
	C215.514343,417.783295 211.173920,428.701202 205.307037,438.742462 
	C199.351730,448.935089 202.139633,456.873322 208.660309,465.544830 
	C229.720871,493.552032 252.848495,519.789978 275.948151,546.074646 
	C279.111237,549.673828 282.611359,551.869934 287.319580,552.459839 
	C292.766968,553.142395 298.187256,554.041138 304.520752,554.889893 
M398.887177,317.625610 
	C389.709198,310.208618 380.466492,302.884277 370.400055,296.365753 
	C369.791260,297.695068 369.504303,298.014404 369.544495,298.285156 
	C369.763062,299.757080 369.985291,301.236237 370.345093,302.678284 
	C378.521881,335.450623 385.415253,368.442047 387.222412,402.288971 
	C387.408173,405.768066 389.065887,406.607697 392.115509,405.800415 
	C398.706451,404.055756 405.441620,402.723083 411.857269,400.477509 
	C424.262848,396.135406 436.705750,391.625885 446.646851,382.523071 
	C453.911438,375.871063 453.980316,374.153229 448.418549,366.276337 
	C447.076569,364.375763 445.632782,362.539398 444.137604,360.755829 
	C430.822174,344.871948 415.515503,331.070160 398.887177,317.625610 
M163.169479,242.328888 
	C157.930450,234.601990 151.874054,227.597061 145.545746,220.709854 
	C136.344971,210.696381 124.547203,207.281281 111.905327,205.274536 
	C111.289169,205.176712 110.521812,205.186966 110.340355,206.406326 
	C110.818703,207.025543 111.365891,207.846710 112.023003,208.567703 
	C123.590363,221.259995 133.678345,235.099869 143.578598,249.092087 
	C158.195648,269.750702 172.345810,290.748260 187.979233,310.672150 
	C193.591095,317.824127 196.742996,318.429443 204.672043,315.109314 
	C208.322998,313.580566 208.631760,311.714691 206.712082,308.668427 
	C203.429871,303.460022 199.716354,298.544189 196.315887,293.433075 
	C185.203476,276.730408 174.446609,259.791229 163.169479,242.328888 
z"/>
</svg>